<svg width="18" height="18" viewBox="0 0 18 18" fill="none" xmlns="http://www.w3.org/2000/svg">
<path fill-rule="evenodd" clip-rule="evenodd" d="M0 9C0 4.02944 4.02944 0 9 0C13.9706 0 18 4.02944 18 9C18 13.9706 13.9706 18 9 18C4.02944 18 0 13.9706 0 9ZM9.5 13.5582C9.32 13.5582 9.15 13.4882 9.02 13.3482C8.78 13.0782 8.8 12.6682 9.06 12.4282L11.9476 9.59452H5C4.64102 9.59452 4.35 9.3035 4.35 8.94452C4.35 8.58553 4.64102 8.29452 5 8.29452H11.9406L9.04 5.47817C8.77 5.23817 8.76 4.82817 9 4.55817C9.24 4.29817 9.65 4.27817 9.92 4.51817L13.98 8.42452C14.29 8.70452 14.29 9.18452 13.98 9.46452L9.94 13.3882C9.81 13.5082 9.66 13.5582 9.5 13.5582Z" fill="#8A96A8"/>
</svg>
