<svg width="20" height="11" viewBox="0 0 20 11" fill="none" xmlns="http://www.w3.org/2000/svg">
<path d="M19.7002 1.04549C19.9992 1.24403 20.0807 1.64744 19.8822 1.94652C19.3822 2.69966 18.7405 3.51907 17.9686 4.30448L19.8043 6.14013C20.0581 6.39397 20.0581 6.80553 19.8043 7.05937C19.5505 7.31321 19.1389 7.31321 18.8851 7.05937L17.0181 5.1924C16.0828 5.99202 15.0026 6.70779 13.7916 7.21538L14.826 9.70416C14.9637 10.0357 14.8067 10.4161 14.4752 10.5538C14.1437 10.6916 13.7633 10.5346 13.6255 10.2031L12.5613 7.64246C11.7552 7.86535 10.9002 7.99179 9.9999 7.99179C9.0836 7.99179 8.22855 7.86873 7.43355 7.65438L6.3743 10.2031C6.23653 10.5346 5.85611 10.6916 5.52461 10.5538C5.19312 10.4161 5.03607 10.0357 5.17385 9.70416L6.20071 7.2334C4.95666 6.71662 3.88486 5.98477 2.97946 5.19465L1.11475 7.05937C0.860905 7.31321 0.449348 7.31321 0.195508 7.05937C-0.0583332 6.80553 -0.0583332 6.39397 0.195508 6.14013L2.03833 4.29731C1.23183 3.46062 0.599785 2.62395 0.13578 1.95898C-0.0696448 1.66458 0.00248271 1.25939 0.296882 1.05396C0.591281 0.848539 0.996468 0.920667 1.20189 1.21507C2.66506 3.31196 5.54129 6.69179 9.9999 6.69179C14.0334 6.69179 17.149 3.71319 18.7991 1.22752C18.9977 0.928439 19.4011 0.84694 19.7002 1.04549Z" fill="#8A96A8"/>
</svg>
