<svg width="20" height="14" viewBox="0 0 20 14" fill="none" xmlns="http://www.w3.org/2000/svg">
<path d="M10 4.7C10 4.3134 9.68226 3.99158 9.30606 4.08066C7.9838 4.39379 7.00001 5.58201 7.00001 7C7.00001 8.65685 8.34315 10 10 10C11.418 10 12.6062 9.01621 12.9193 7.69395C13.0084 7.31775 12.6866 7 12.3 7H11.3C10.582 7 10 6.41797 10 5.7V4.7Z" fill="#8A96A8"/>
<path fill-rule="evenodd" clip-rule="evenodd" d="M0.773206 5.71853C2.13585 3.69823 5.27545 0 10 0C14.7246 0 17.8642 3.69823 19.2268 5.71853C19.7548 6.50138 19.7548 7.49862 19.2268 8.28147C17.8642 10.3018 14.7246 14 10 14C5.27545 14 2.13585 10.3018 0.773206 8.28147C0.245195 7.49862 0.245194 6.50138 0.773206 5.71853ZM5.35002 6.99998C5.35002 4.43185 7.43189 2.34998 10 2.34998C12.5681 2.34998 14.65 4.43185 14.65 6.99998C14.65 9.5681 12.5681 11.65 10 11.65C7.43189 11.65 5.35002 9.5681 5.35002 6.99998Z" fill="#8A96A8"/>
</svg>
